<svg width="30" height="30" viewBox="0 0 39 46" fill="none" xmlns="http://www.w3.org/2000/svg">
<g id="&#240;&#159;&#166;&#134; icon &#34;timer&#34;">
<path id="Vector" d="M11.0407 0.940002V6.46037H16.5611V6.62598C7.17648 7.95087 0 16.0658 0 25.7817C0 36.436 8.66698 45.103 19.3213 45.103C29.9756 45.103 38.6426 36.436 38.6426 25.7817C38.6426 23.2975 38.0905 20.9789 37.2625 18.8812L32.239 20.9789C32.8462 22.5798 33.1222 24.1256 33.1222 25.8369C33.1222 33.5102 26.9946 39.6378 19.3213 39.6378C11.648 39.6378 5.52037 33.5102 5.52037 25.8369C5.52037 18.1636 11.648 12.0359 19.3213 12.0359C20.9774 12.0359 22.5783 12.312 24.1792 12.9192L26.0561 7.73006C24.7865 7.28843 23.4616 7.06761 22.0815 6.8468V6.51557H27.6018V0.995206H11.0407V0.940002ZM38.6426 7.34363C38.6426 7.34363 18.4932 22.8559 17.4444 23.9047C16.3955 25.0088 16.3955 26.6097 17.4444 27.7138C18.4932 28.8179 20.1493 28.8179 21.2534 27.7138C22.3575 26.6097 38.6978 7.34363 38.6978 7.34363H38.6426Z" fill="#BD2100"/>
</g>
</svg>
