<svg width="35" height="35" viewBox="0 0 52 47" fill="none" xmlns="http://www.w3.org/2000/svg">
<path id="Vector" d="M22.5459 0.0582229C10.1134 0.0582229 0 9.19922 0 20.4362C0 31.6733 10.1134 40.8142 22.5459 40.8142C26.3465 40.8142 30.0827 39.9991 33.2391 38.4271C33.4919 38.7021 33.7722 38.9555 34.0765 39.184L40.5182 45.0063C41.113 45.6112 41.8383 46.0999 42.6496 46.4423C43.4609 46.7847 44.3411 46.9736 45.2362 46.9974C46.1312 47.0212 47.0221 46.8795 47.8543 46.5808C48.6865 46.2821 49.4424 45.8329 50.0755 45.2606C50.7087 44.6883 51.2057 44.0051 51.5362 43.2529C51.8666 42.5008 52.0235 41.6955 51.9972 40.8865C51.9708 40.0776 51.7618 39.282 51.383 38.5487C51.0042 37.8154 50.4635 37.1598 49.7942 36.6222L43.3525 30.7999C43.0387 30.5162 42.6933 30.2625 42.3218 30.043C44.0611 27.1901 45.1562 23.8714 45.1562 20.378C45.1562 9.14099 35.0427 0 22.6103 0L22.5459 0.0582229ZM22.5459 5.88051C31.4998 5.88051 38.6501 12.3433 38.6501 20.4362C38.6501 24.2789 37.1041 27.8305 34.3986 30.4506C34.3342 30.5088 34.2697 30.567 34.2053 30.6252C33.9011 30.8538 33.6207 31.1071 33.3679 31.3821C30.5336 33.7111 26.6686 35.0502 22.4815 35.0502C13.5275 35.0502 6.37726 28.5874 6.37726 20.4945C6.37726 12.4015 13.5275 5.93873 22.4815 5.93873L22.5459 5.88051Z" fill="#BD2100"/>
</svg>
