<svg width="200" height="269" viewBox="0 0 216 269" fill="none" xmlns="http://www.w3.org/2000/svg">
<g clip-path="url(#clip0_3_232)">
<rect width="216" height="269" rx="16" fill="#009CBD"/>
<g filter="url(#filter0_d_3_232)">
<circle cx="105" cy="63" r="36" fill="white"/>
</g>
<path opacity="0.4" d="M119.85 61.5331C119.85 69.6831 113.933 77.3165 105.85 79.5498C105.3 79.6998 104.7 79.6998 104.15 79.5498C96.0666 77.3165 90.15 69.6831 90.15 61.5331V54.2165C90.15 52.8498 91.1833 51.2998 92.4667 50.7832L101.75 46.9832C103.833 46.1332 106.183 46.1332 108.267 46.9832L117.55 50.7832C118.817 51.2998 119.867 52.8498 119.867 54.2165L119.85 61.5331Z" fill="#009CBD"/>
<path d="M109.167 60.4998C109.167 58.1998 107.3 56.3332 105 56.3332C102.7 56.3332 100.833 58.1998 100.833 60.4998C100.833 62.3665 102.067 63.9165 103.75 64.4498V68.8332C103.75 69.5165 104.317 70.0832 105 70.0832C105.683 70.0832 106.25 69.5165 106.25 68.8332V64.4498C107.933 63.9165 109.167 62.3665 109.167 60.4998Z" fill="#009CBD"/>
<path d="M41.3395 115.453C41.2732 114.833 40.9938 114.35 40.5014 114.004C40.0137 113.659 39.3793 113.486 38.598 113.486C38.0488 113.486 37.5777 113.569 37.1847 113.734C36.7917 113.9 36.491 114.125 36.2827 114.409C36.0743 114.693 35.9678 115.018 35.9631 115.382C35.9631 115.685 36.0317 115.948 36.169 116.17C36.3111 116.393 36.5028 116.582 36.7443 116.739C36.9858 116.89 37.2533 117.018 37.5469 117.122C37.8404 117.226 38.1364 117.314 38.4347 117.385L39.7983 117.726C40.3475 117.854 40.8755 118.027 41.3821 118.244C41.8935 118.462 42.3504 118.737 42.7528 119.068C43.16 119.4 43.482 119.8 43.7188 120.268C43.9555 120.737 44.0739 121.286 44.0739 121.916C44.0739 122.768 43.8561 123.519 43.4205 124.168C42.9848 124.812 42.3551 125.316 41.5312 125.68C40.7121 126.04 39.7202 126.22 38.5554 126.22C37.4238 126.22 36.4413 126.045 35.608 125.695C34.7794 125.344 34.1307 124.833 33.6619 124.161C33.1979 123.488 32.947 122.669 32.9091 121.703H35.5014C35.5393 122.21 35.6955 122.631 35.9702 122.967C36.2448 123.304 36.6023 123.554 37.0426 123.72C37.4877 123.886 37.9848 123.969 38.5341 123.969C39.107 123.969 39.6089 123.884 40.0398 123.713C40.4754 123.538 40.8163 123.296 41.0625 122.989C41.3087 122.676 41.4342 122.312 41.4389 121.895C41.4342 121.516 41.3229 121.204 41.1051 120.957C40.8873 120.706 40.5819 120.498 40.1889 120.332C39.8007 120.162 39.3461 120.01 38.8253 119.878L37.1705 119.452C35.9725 119.144 35.0256 118.678 34.3295 118.053C33.6383 117.423 33.2926 116.587 33.2926 115.545C33.2926 114.688 33.5246 113.938 33.9886 113.294C34.4574 112.65 35.0942 112.151 35.8991 111.795C36.7041 111.436 37.6155 111.256 38.6335 111.256C39.6657 111.256 40.5701 111.436 41.3466 111.795C42.1278 112.151 42.741 112.645 43.1861 113.28C43.6312 113.91 43.8608 114.634 43.875 115.453H41.3395ZM51.4588 126.213C50.3651 126.213 49.4205 125.986 48.625 125.531C47.8343 125.072 47.2259 124.423 46.7998 123.585C46.3736 122.742 46.1606 121.75 46.1606 120.609C46.1606 119.487 46.3736 118.502 46.7998 117.655C47.2306 116.803 47.832 116.14 48.6037 115.666C49.3755 115.188 50.2822 114.949 51.3239 114.949C51.9963 114.949 52.6307 115.058 53.2273 115.276C53.8286 115.489 54.3589 115.82 54.8182 116.27C55.2822 116.72 55.6468 117.293 55.912 117.989C56.1771 118.68 56.3097 119.504 56.3097 120.46V121.249H47.3679V119.516H53.8452C53.8405 119.023 53.7339 118.585 53.5256 118.202C53.3173 117.813 53.0261 117.508 52.652 117.286C52.2827 117.063 51.8518 116.952 51.3594 116.952C50.8338 116.952 50.3722 117.08 49.9745 117.335C49.5767 117.586 49.2666 117.918 49.0441 118.33C48.8263 118.737 48.715 119.184 48.7103 119.672V121.185C48.7103 121.819 48.8263 122.364 49.0583 122.818C49.2903 123.268 49.6146 123.614 50.0313 123.855C50.448 124.092 50.9356 124.21 51.4944 124.21C51.8684 124.21 52.207 124.158 52.51 124.054C52.813 123.945 53.0758 123.786 53.2983 123.578C53.5209 123.37 53.689 123.112 53.8026 122.804L56.2032 123.074C56.0517 123.708 55.7628 124.262 55.3367 124.736C54.9153 125.205 54.3755 125.569 53.7174 125.83C53.0592 126.085 52.3064 126.213 51.4588 126.213ZM63.6343 126.213C62.5406 126.213 61.596 125.986 60.8005 125.531C60.0098 125.072 59.4014 124.423 58.9752 123.585C58.5491 122.742 58.336 121.75 58.336 120.609C58.336 119.487 58.5491 118.502 58.9752 117.655C59.4061 116.803 60.0074 116.14 60.7792 115.666C61.551 115.188 62.4577 114.949 63.4994 114.949C64.1717 114.949 64.8062 115.058 65.4028 115.276C66.0041 115.489 66.5344 115.82 66.9937 116.27C67.4577 116.72 67.8223 117.293 68.0874 117.989C68.3526 118.68 68.4852 119.504 68.4852 120.46V121.249H59.5434V119.516H66.0207C66.0159 119.023 65.9094 118.585 65.7011 118.202C65.4927 117.813 65.2016 117.508 64.8275 117.286C64.4582 117.063 64.0273 116.952 63.5349 116.952C63.0093 116.952 62.5477 117.08 62.1499 117.335C61.7522 117.586 61.4421 117.918 61.2195 118.33C61.0017 118.737 60.8905 119.184 60.8857 119.672V121.185C60.8857 121.819 61.0017 122.364 61.2337 122.818C61.4658 123.268 61.7901 123.614 62.2068 123.855C62.6234 124.092 63.1111 124.21 63.6698 124.21C64.0439 124.21 64.3824 124.158 64.6855 124.054C64.9885 123.945 65.2513 123.786 65.4738 123.578C65.6963 123.37 65.8644 123.112 65.9781 122.804L68.3786 123.074C68.2271 123.708 67.9383 124.262 67.5122 124.736C67.0908 125.205 66.551 125.569 65.8928 125.83C65.2347 126.085 64.4819 126.213 63.6343 126.213ZM81.7086 115.091V117.08H75.4373V115.091H81.7086ZM76.9856 112.477H79.5566V122.719C79.5566 123.064 79.6087 123.33 79.7129 123.514C79.8218 123.694 79.9638 123.817 80.139 123.884C80.3142 123.95 80.5083 123.983 80.7214 123.983C80.8824 123.983 81.0292 123.971 81.1617 123.947C81.2991 123.924 81.4032 123.902 81.4742 123.884L81.9075 125.893C81.7702 125.941 81.5737 125.993 81.318 126.05C81.067 126.107 80.7593 126.14 80.3947 126.149C79.7508 126.168 79.1707 126.071 78.6546 125.858C78.1385 125.64 77.729 125.304 77.426 124.849C77.1277 124.395 76.9809 123.827 76.9856 123.145V112.477ZM86.9842 119.608V126H84.4132V111.455H86.9274V116.945H87.0553C87.3109 116.329 87.7063 115.844 88.2413 115.489C88.7811 115.129 89.4677 114.949 90.301 114.949C91.0586 114.949 91.7191 115.107 92.2825 115.425C92.846 115.742 93.2816 116.206 93.5893 116.817C93.9018 117.428 94.0581 118.173 94.0581 119.054V126H91.4871V119.452C91.4871 118.718 91.2977 118.147 90.9189 117.74C90.5448 117.328 90.0193 117.122 89.3422 117.122C88.8876 117.122 88.4804 117.222 88.1206 117.42C87.7655 117.615 87.4861 117.896 87.2825 118.266C87.0837 118.635 86.9842 119.082 86.9842 119.608ZM101.828 126.213C100.735 126.213 99.79 125.986 98.9946 125.531C98.2039 125.072 97.5954 124.423 97.1693 123.585C96.7432 122.742 96.5301 121.75 96.5301 120.609C96.5301 119.487 96.7432 118.502 97.1693 117.655C97.6002 116.803 98.2015 116.14 98.9733 115.666C99.745 115.188 100.652 114.949 101.693 114.949C102.366 114.949 103 115.058 103.597 115.276C104.198 115.489 104.728 115.82 105.188 116.27C105.652 116.72 106.016 117.293 106.282 117.989C106.547 118.68 106.679 119.504 106.679 120.46V121.249H97.7375V119.516H104.215C104.21 119.023 104.103 118.585 103.895 118.202C103.687 117.813 103.396 117.508 103.022 117.286C102.652 117.063 102.221 116.952 101.729 116.952C101.203 116.952 100.742 117.08 100.344 117.335C99.9463 117.586 99.6361 117.918 99.4136 118.33C99.1958 118.737 99.0845 119.184 99.0798 119.672V121.185C99.0798 121.819 99.1958 122.364 99.4278 122.818C99.6598 123.268 99.9842 123.614 100.401 123.855C100.817 124.092 101.305 124.21 101.864 124.21C102.238 124.21 102.576 124.158 102.88 124.054C103.183 123.945 103.445 123.786 103.668 123.578C103.89 123.37 104.058 123.112 104.172 122.804L106.573 123.074C106.421 123.708 106.132 124.262 105.706 124.736C105.285 125.205 104.745 125.569 104.087 125.83C103.429 126.085 102.676 126.213 101.828 126.213ZM113.93 113.663V111.455H125.535V113.663H121.039V126H118.425V113.663H113.93ZM126.846 126V115.091H129.338V116.909H129.452C129.651 116.279 129.992 115.794 130.475 115.453C130.963 115.107 131.519 114.935 132.144 114.935C132.286 114.935 132.445 114.942 132.62 114.956C132.8 114.965 132.949 114.982 133.067 115.006V117.371C132.958 117.333 132.785 117.3 132.549 117.271C132.317 117.238 132.092 117.222 131.874 117.222C131.405 117.222 130.984 117.323 130.61 117.527C130.24 117.726 129.949 118.003 129.736 118.358C129.523 118.713 129.417 119.123 129.417 119.587V126H126.846ZM138.039 126.22C137.348 126.22 136.725 126.097 136.171 125.851C135.622 125.6 135.186 125.231 134.864 124.743C134.547 124.255 134.389 123.654 134.389 122.939C134.389 122.323 134.502 121.814 134.729 121.412C134.957 121.009 135.267 120.688 135.66 120.446C136.053 120.205 136.496 120.022 136.988 119.899C137.485 119.771 137.999 119.679 138.529 119.622C139.168 119.556 139.687 119.497 140.085 119.445C140.482 119.388 140.771 119.303 140.951 119.189C141.136 119.071 141.228 118.888 141.228 118.642V118.599C141.228 118.064 141.069 117.65 140.752 117.357C140.435 117.063 139.978 116.916 139.381 116.916C138.752 116.916 138.252 117.054 137.883 117.328C137.518 117.603 137.272 117.927 137.144 118.301L134.744 117.96C134.933 117.297 135.246 116.743 135.681 116.298C136.117 115.848 136.649 115.512 137.279 115.29C137.909 115.062 138.605 114.949 139.367 114.949C139.893 114.949 140.416 115.01 140.937 115.134C141.458 115.257 141.934 115.46 142.364 115.744C142.795 116.024 143.141 116.405 143.401 116.888C143.666 117.371 143.799 117.974 143.799 118.699V126H141.327V124.501H141.242C141.086 124.804 140.866 125.089 140.582 125.354C140.302 125.614 139.95 125.825 139.524 125.986C139.102 126.142 138.607 126.22 138.039 126.22ZM138.707 124.331C139.223 124.331 139.67 124.229 140.049 124.026C140.428 123.817 140.719 123.543 140.923 123.202C141.131 122.861 141.235 122.489 141.235 122.087V120.801C141.155 120.867 141.017 120.929 140.823 120.986C140.634 121.043 140.421 121.092 140.184 121.135C139.947 121.178 139.713 121.215 139.481 121.249C139.249 121.282 139.048 121.31 138.877 121.334C138.494 121.386 138.15 121.471 137.847 121.589C137.544 121.708 137.305 121.874 137.13 122.087C136.955 122.295 136.867 122.565 136.867 122.896C136.867 123.37 137.04 123.727 137.386 123.969C137.731 124.21 138.172 124.331 138.707 124.331ZM152.23 115.091V117.08H145.781V115.091H152.23ZM147.393 126V114.061C147.393 113.327 147.545 112.716 147.848 112.229C148.156 111.741 148.567 111.376 149.084 111.135C149.6 110.893 150.173 110.773 150.802 110.773C151.247 110.773 151.643 110.808 151.988 110.879C152.334 110.95 152.59 111.014 152.755 111.071L152.244 113.06C152.135 113.027 151.998 112.993 151.832 112.96C151.666 112.922 151.482 112.903 151.278 112.903C150.8 112.903 150.461 113.019 150.263 113.251C150.068 113.479 149.971 113.805 149.971 114.232V126H147.393ZM160.089 115.091V117.08H153.64V115.091H160.089ZM155.252 126V114.061C155.252 113.327 155.404 112.716 155.707 112.229C156.015 111.741 156.427 111.376 156.943 111.135C157.459 110.893 158.032 110.773 158.661 110.773C159.106 110.773 159.502 110.808 159.847 110.879C160.193 110.95 160.449 111.014 160.614 111.071L160.103 113.06C159.994 113.027 159.857 112.993 159.691 112.96C159.525 112.922 159.341 112.903 159.137 112.903C158.659 112.903 158.32 113.019 158.122 113.251C157.927 113.479 157.83 113.805 157.83 114.232V126H155.252ZM162.422 126V115.091H164.993V126H162.422ZM163.715 113.543C163.308 113.543 162.957 113.408 162.664 113.138C162.37 112.863 162.224 112.534 162.224 112.151C162.224 111.762 162.37 111.433 162.664 111.163C162.957 110.889 163.308 110.751 163.715 110.751C164.127 110.751 164.477 110.889 164.766 111.163C165.06 111.433 165.207 111.762 165.207 112.151C165.207 112.534 165.06 112.863 164.766 113.138C164.477 113.408 164.127 113.543 163.715 113.543ZM172.716 126.213C171.627 126.213 170.692 125.974 169.91 125.496C169.134 125.018 168.535 124.357 168.114 123.514C167.697 122.667 167.489 121.691 167.489 120.588C167.489 119.48 167.702 118.502 168.128 117.655C168.554 116.803 169.155 116.14 169.932 115.666C170.713 115.188 171.636 114.949 172.702 114.949C173.587 114.949 174.371 115.112 175.052 115.439C175.739 115.761 176.286 116.218 176.693 116.81C177.1 117.397 177.332 118.083 177.389 118.869H174.932C174.832 118.344 174.596 117.906 174.221 117.555C173.852 117.2 173.357 117.023 172.737 117.023C172.212 117.023 171.75 117.165 171.352 117.449C170.954 117.728 170.644 118.131 170.422 118.656C170.204 119.182 170.095 119.812 170.095 120.545C170.095 121.289 170.204 121.928 170.422 122.463C170.64 122.993 170.945 123.403 171.338 123.692C171.736 123.976 172.202 124.118 172.737 124.118C173.116 124.118 173.454 124.047 173.753 123.905C174.056 123.758 174.309 123.547 174.513 123.273C174.716 122.998 174.856 122.664 174.932 122.271H177.389C177.328 123.043 177.1 123.727 176.707 124.324C176.314 124.916 175.779 125.38 175.102 125.716C174.425 126.047 173.63 126.213 172.716 126.213Z" fill="#FAFCFE"/>
<path d="M32.7946 161V152.273H34.1114V156.44H34.2179L37.8784 152.273H39.5361L36.0162 156.202L39.5489 161H37.9636L35.1426 157.101L34.1114 158.286V161H32.7946ZM42.7616 161.132C42.1168 161.132 41.5614 160.994 41.0955 160.719C40.6324 160.44 40.2744 160.05 40.0216 159.547C39.7716 159.041 39.6466 158.449 39.6466 157.77C39.6466 157.099 39.7716 156.509 40.0216 155.997C40.2744 155.486 40.6267 155.087 41.0784 154.8C41.533 154.513 42.0642 154.369 42.6722 154.369C43.0415 154.369 43.3994 154.43 43.746 154.553C44.0926 154.675 44.4037 154.866 44.6793 155.128C44.9548 155.389 45.1722 155.729 45.3312 156.146C45.4903 156.561 45.5699 157.065 45.5699 157.659V158.111H40.3668V157.156H44.3213C44.3213 156.821 44.2531 156.524 44.1168 156.266C43.9804 156.004 43.7886 155.798 43.5415 155.648C43.2972 155.497 43.0102 155.422 42.6807 155.422C42.3227 155.422 42.0102 155.51 41.7432 155.686C41.479 155.859 41.2744 156.087 41.1295 156.368C40.9875 156.646 40.9165 156.949 40.9165 157.276V158.021C40.9165 158.459 40.9932 158.831 41.1466 159.138C41.3028 159.445 41.5202 159.679 41.7986 159.841C42.077 160 42.4023 160.08 42.7744 160.08C43.0159 160.08 43.2361 160.045 43.4349 159.977C43.6338 159.906 43.8057 159.801 43.9506 159.662C44.0955 159.523 44.2062 159.351 44.283 159.146L45.4889 159.364C45.3923 159.719 45.219 160.03 44.969 160.297C44.7219 160.561 44.4108 160.767 44.0358 160.915C43.6636 161.06 43.2389 161.132 42.7616 161.132ZM49.5646 161.132C48.9197 161.132 48.3643 160.994 47.8984 160.719C47.4354 160.44 47.0774 160.05 46.8246 159.547C46.5746 159.041 46.4496 158.449 46.4496 157.77C46.4496 157.099 46.5746 156.509 46.8246 155.997C47.0774 155.486 47.4297 155.087 47.8814 154.8C48.3359 154.513 48.8672 154.369 49.4751 154.369C49.8444 154.369 50.2024 154.43 50.549 154.553C50.8956 154.675 51.2067 154.866 51.4822 155.128C51.7578 155.389 51.9751 155.729 52.1342 156.146C52.2933 156.561 52.3729 157.065 52.3729 157.659V158.111H47.1697V157.156H51.1243C51.1243 156.821 51.0561 156.524 50.9197 156.266C50.7834 156.004 50.5916 155.798 50.3444 155.648C50.1001 155.497 49.8132 155.422 49.4836 155.422C49.1257 155.422 48.8132 155.51 48.5461 155.686C48.2819 155.859 48.0774 156.087 47.9325 156.368C47.7905 156.646 47.7194 156.949 47.7194 157.276V158.021C47.7194 158.459 47.7961 158.831 47.9496 159.138C48.1058 159.445 48.3231 159.679 48.6015 159.841C48.88 160 49.2052 160.08 49.5774 160.08C49.8189 160.08 50.039 160.045 50.2379 159.977C50.4368 159.906 50.6086 159.801 50.7535 159.662C50.8984 159.523 51.0092 159.351 51.0859 159.146L52.2919 159.364C52.1953 159.719 52.022 160.03 51.772 160.297C51.5248 160.561 51.2138 160.767 50.8388 160.915C50.4666 161.06 50.0419 161.132 49.5646 161.132ZM53.5466 163.455V154.455H54.7909V155.516H54.8974C54.9713 155.379 55.0778 155.222 55.217 155.043C55.3562 154.864 55.5494 154.707 55.7966 154.574C56.0437 154.438 56.3704 154.369 56.7767 154.369C57.3051 154.369 57.7767 154.503 58.1914 154.77C58.6062 155.037 58.9315 155.422 59.1673 155.925C59.4059 156.428 59.5253 157.033 59.5253 157.74C59.5253 158.447 59.4074 159.054 59.1716 159.56C58.9358 160.062 58.6119 160.45 58.2 160.723C57.788 160.993 57.3179 161.128 56.7895 161.128C56.3917 161.128 56.0664 161.061 55.8136 160.928C55.5636 160.794 55.3676 160.638 55.2255 160.459C55.0835 160.28 54.9741 160.121 54.8974 159.982H54.8207V163.455H53.5466ZM54.7951 157.727C54.7951 158.187 54.8619 158.591 54.9954 158.938C55.1289 159.284 55.3221 159.555 55.575 159.751C55.8278 159.945 56.1375 160.041 56.5039 160.041C56.8846 160.041 57.2028 159.94 57.4585 159.739C57.7142 159.534 57.9074 159.257 58.038 158.908C58.1716 158.558 58.2383 158.165 58.2383 157.727C58.2383 157.295 58.173 156.908 58.0423 156.564C57.9145 156.22 57.7213 155.949 57.4628 155.75C57.2071 155.551 56.8875 155.452 56.5039 155.452C56.1346 155.452 55.8221 155.547 55.5664 155.737C55.3136 155.928 55.1218 156.193 54.9912 156.534C54.8605 156.875 54.7951 157.273 54.7951 157.727ZM64.454 163.455C64.2636 163.455 64.0904 163.439 63.9341 163.408C63.7779 163.379 63.6614 163.348 63.5847 163.314L63.8915 162.27C64.1244 162.332 64.3318 162.359 64.5136 162.351C64.6955 162.342 64.856 162.274 64.9952 162.146C65.1372 162.018 65.2622 161.81 65.3702 161.52L65.5279 161.085L63.133 154.455H64.4966L66.1543 159.534H66.2225L67.8801 154.455H69.248L66.5506 161.874C66.4256 162.214 66.2665 162.503 66.0733 162.739C65.8801 162.977 65.65 163.156 65.383 163.276C65.1159 163.395 64.8063 163.455 64.454 163.455ZM72.7399 161.132C72.1263 161.132 71.5908 160.991 71.1334 160.71C70.676 160.429 70.3209 160.036 70.068 159.53C69.8152 159.024 69.6888 158.433 69.6888 157.757C69.6888 157.078 69.8152 156.484 70.068 155.976C70.3209 155.467 70.676 155.072 71.1334 154.791C71.5908 154.51 72.1263 154.369 72.7399 154.369C73.3536 154.369 73.8891 154.51 74.3464 154.791C74.8038 155.072 75.1589 155.467 75.4118 155.976C75.6646 156.484 75.7911 157.078 75.7911 157.757C75.7911 158.433 75.6646 159.024 75.4118 159.53C75.1589 160.036 74.8038 160.429 74.3464 160.71C73.8891 160.991 73.3536 161.132 72.7399 161.132ZM72.7442 160.062C73.1419 160.062 73.4714 159.957 73.7328 159.747C73.9942 159.537 74.1874 159.257 74.3124 158.908C74.4402 158.558 74.5041 158.173 74.5041 157.753C74.5041 157.335 74.4402 156.952 74.3124 156.602C74.1874 156.25 73.9942 155.967 73.7328 155.754C73.4714 155.541 73.1419 155.435 72.7442 155.435C72.3436 155.435 72.0112 155.541 71.747 155.754C71.4857 155.967 71.2911 156.25 71.1632 156.602C71.0382 156.952 70.9757 157.335 70.9757 157.753C70.9757 158.173 71.0382 158.558 71.1632 158.908C71.2911 159.257 71.4857 159.537 71.747 159.747C72.0112 159.957 72.3436 160.062 72.7442 160.062ZM81.1196 158.286V154.455H82.398V161H81.1452V159.866H81.077C80.9264 160.216 80.6849 160.507 80.3525 160.74C80.023 160.97 79.6125 161.085 79.121 161.085C78.7006 161.085 78.3284 160.993 78.0045 160.808C77.6835 160.621 77.4307 160.344 77.246 159.977C77.0642 159.611 76.9733 159.158 76.9733 158.618V154.455H78.2474V158.464C78.2474 158.911 78.371 159.266 78.6182 159.53C78.8653 159.794 79.1863 159.926 79.5812 159.926C79.8199 159.926 80.0571 159.866 80.2929 159.747C80.5315 159.628 80.729 159.447 80.8852 159.206C81.0443 158.964 81.1224 158.658 81.1196 158.286ZM83.87 161V154.455H85.1015V155.494H85.1697C85.289 155.142 85.4993 154.865 85.8004 154.663C86.1044 154.459 86.4481 154.357 86.8316 154.357C86.9112 154.357 87.0049 154.359 87.1129 154.365C87.2237 154.371 87.3103 154.378 87.3728 154.386V155.605C87.3217 155.591 87.2308 155.575 87.1001 155.558C86.9694 155.538 86.8388 155.528 86.7081 155.528C86.4069 155.528 86.1385 155.592 85.9027 155.72C85.6697 155.845 85.4851 156.02 85.3487 156.244C85.2123 156.466 85.1441 156.719 85.1441 157.003V161H83.87ZM93.1403 156.053L91.9855 156.257C91.9372 156.109 91.8605 155.969 91.7554 155.835C91.6531 155.702 91.5139 155.592 91.3377 155.507C91.1616 155.422 90.9414 155.379 90.6772 155.379C90.3164 155.379 90.0153 155.46 89.7738 155.622C89.5323 155.781 89.4116 155.987 89.4116 156.24C89.4116 156.459 89.4926 156.635 89.6545 156.768C89.8164 156.902 90.0778 157.011 90.4386 157.097L91.4784 157.335C92.0806 157.474 92.5295 157.689 92.825 157.979C93.1204 158.268 93.2681 158.645 93.2681 159.108C93.2681 159.5 93.1545 159.849 92.9272 160.156C92.7028 160.46 92.3889 160.699 91.9855 160.872C91.5849 161.045 91.1204 161.132 90.592 161.132C89.8591 161.132 89.261 160.976 88.798 160.663C88.3349 160.348 88.0508 159.901 87.9457 159.321L89.1772 159.134C89.2539 159.455 89.4116 159.697 89.6502 159.862C89.8889 160.024 90.2 160.105 90.5835 160.105C91.0011 160.105 91.3349 160.018 91.5849 159.845C91.8349 159.669 91.9599 159.455 91.9599 159.202C91.9599 158.997 91.8832 158.825 91.7298 158.686C91.5792 158.547 91.3477 158.442 91.0352 158.371L89.9272 158.128C89.3164 157.989 88.8647 157.767 88.5721 157.463C88.2823 157.159 88.1375 156.774 88.1375 156.308C88.1375 155.922 88.2454 155.584 88.4613 155.294C88.6772 155.004 88.9755 154.778 89.3562 154.616C89.7369 154.452 90.173 154.369 90.6644 154.369C91.3718 154.369 91.9287 154.523 92.3349 154.83C92.7412 155.134 93.0096 155.541 93.1403 156.053ZM97.2501 161.132C96.6052 161.132 96.0498 160.994 95.5839 160.719C95.1208 160.44 94.7629 160.05 94.51 159.547C94.26 159.041 94.135 158.449 94.135 157.77C94.135 157.099 94.26 156.509 94.51 155.997C94.7629 155.486 95.1151 155.087 95.5668 154.8C96.0214 154.513 96.5526 154.369 97.1606 154.369C97.5299 154.369 97.8879 154.43 98.2345 154.553C98.581 154.675 98.8921 154.866 99.1677 155.128C99.4433 155.389 99.6606 155.729 99.8197 156.146C99.9788 156.561 100.058 157.065 100.058 157.659V158.111H94.8552V157.156H98.8097C98.8097 156.821 98.7416 156.524 98.6052 156.266C98.4688 156.004 98.2771 155.798 98.0299 155.648C97.7856 155.497 97.4987 155.422 97.1691 155.422C96.8112 155.422 96.4987 155.51 96.2316 155.686C95.9674 155.859 95.7629 156.087 95.618 156.368C95.4759 156.646 95.4049 156.949 95.4049 157.276V158.021C95.4049 158.459 95.4816 158.831 95.635 159.138C95.7913 159.445 96.0086 159.679 96.287 159.841C96.5654 160 96.8907 160.08 97.2629 160.08C97.5043 160.08 97.7245 160.045 97.9234 159.977C98.1222 159.906 98.2941 159.801 98.439 159.662C98.5839 159.523 98.6947 159.351 98.7714 159.146L99.9774 159.364C99.8808 159.719 99.7075 160.03 99.4575 160.297C99.2103 160.561 98.8992 160.767 98.5242 160.915C98.1521 161.06 97.7274 161.132 97.2501 161.132ZM102.506 152.273V161H101.232V152.273H102.506ZM107.095 154.455V155.477H103.397V154.455H107.095ZM104.411 161V153.696C104.411 153.287 104.5 152.947 104.679 152.678C104.858 152.405 105.095 152.202 105.391 152.068C105.686 151.932 106.007 151.864 106.354 151.864C106.61 151.864 106.828 151.885 107.01 151.928C107.192 151.967 107.327 152.004 107.415 152.038L107.117 153.07C107.057 153.053 106.98 153.033 106.887 153.01C106.793 152.984 106.679 152.972 106.546 152.972C106.236 152.972 106.014 153.048 105.881 153.202C105.75 153.355 105.685 153.577 105.685 153.866V161H104.411ZM115.252 158.286V154.455H116.53V161H115.278V159.866H115.209C115.059 160.216 114.817 160.507 114.485 160.74C114.155 160.97 113.745 161.085 113.254 161.085C112.833 161.085 112.461 160.993 112.137 160.808C111.816 160.621 111.563 160.344 111.379 159.977C111.197 159.611 111.106 159.158 111.106 158.618V154.455H112.38V158.464C112.38 158.911 112.504 159.266 112.751 159.53C112.998 159.794 113.319 159.926 113.714 159.926C113.952 159.926 114.19 159.866 114.425 159.747C114.664 159.628 114.861 159.447 115.018 159.206C115.177 158.964 115.255 158.658 115.252 158.286ZM118.002 163.455V154.455H119.247V155.516H119.353C119.427 155.379 119.534 155.222 119.673 155.043C119.812 154.864 120.005 154.707 120.252 154.574C120.5 154.438 120.826 154.369 121.233 154.369C121.761 154.369 122.233 154.503 122.647 154.77C123.062 155.037 123.387 155.422 123.623 155.925C123.862 156.428 123.981 157.033 123.981 157.74C123.981 158.447 123.863 159.054 123.628 159.56C123.392 160.062 123.068 160.45 122.656 160.723C122.244 160.993 121.774 161.128 121.245 161.128C120.848 161.128 120.522 161.061 120.27 160.928C120.02 160.794 119.824 160.638 119.681 160.459C119.539 160.28 119.43 160.121 119.353 159.982H119.277V163.455H118.002ZM119.251 157.727C119.251 158.187 119.318 158.591 119.451 158.938C119.585 159.284 119.778 159.555 120.031 159.751C120.284 159.945 120.593 160.041 120.96 160.041C121.341 160.041 121.659 159.94 121.914 159.739C122.17 159.534 122.363 159.257 122.494 158.908C122.627 158.558 122.694 158.165 122.694 157.727C122.694 157.295 122.629 156.908 122.498 156.564C122.37 156.22 122.177 155.949 121.919 155.75C121.663 155.551 121.343 155.452 120.96 155.452C120.591 155.452 120.278 155.547 120.022 155.737C119.77 155.928 119.578 156.193 119.447 156.534C119.316 156.875 119.251 157.273 119.251 157.727ZM127.619 161.128C127.091 161.128 126.619 160.993 126.204 160.723C125.792 160.45 125.468 160.062 125.233 159.56C125 159.054 124.883 158.447 124.883 157.74C124.883 157.033 125.001 156.428 125.237 155.925C125.476 155.422 125.802 155.037 126.217 154.77C126.632 154.503 127.102 154.369 127.628 154.369C128.034 154.369 128.361 154.438 128.608 154.574C128.858 154.707 129.051 154.864 129.187 155.043C129.326 155.222 129.434 155.379 129.511 155.516H129.588V152.273H130.862V161H129.618V159.982H129.511C129.434 160.121 129.324 160.28 129.179 160.459C129.037 160.638 128.841 160.794 128.591 160.928C128.341 161.061 128.017 161.128 127.619 161.128ZM127.9 160.041C128.267 160.041 128.576 159.945 128.829 159.751C129.085 159.555 129.278 159.284 129.409 158.938C129.542 158.591 129.609 158.187 129.609 157.727C129.609 157.273 129.544 156.875 129.413 156.534C129.282 156.193 129.091 155.928 128.838 155.737C128.585 155.547 128.272 155.452 127.9 155.452C127.517 155.452 127.197 155.551 126.941 155.75C126.686 155.949 126.493 156.22 126.362 156.564C126.234 156.908 126.17 157.295 126.17 157.727C126.17 158.165 126.236 158.558 126.366 158.908C126.497 159.257 126.69 159.534 126.946 159.739C127.204 159.94 127.522 160.041 127.9 160.041ZM134.345 161.145C133.931 161.145 133.556 161.068 133.22 160.915C132.885 160.759 132.619 160.533 132.423 160.237C132.23 159.942 132.134 159.58 132.134 159.151C132.134 158.781 132.205 158.477 132.347 158.239C132.489 158 132.681 157.811 132.922 157.672C133.163 157.533 133.433 157.428 133.732 157.357C134.03 157.286 134.334 157.232 134.644 157.195C135.036 157.149 135.354 157.112 135.598 157.084C135.842 157.053 136.02 157.003 136.131 156.935C136.242 156.866 136.297 156.756 136.297 156.602V156.572C136.297 156.2 136.192 155.912 135.982 155.707C135.774 155.503 135.465 155.401 135.053 155.401C134.624 155.401 134.286 155.496 134.038 155.686C133.794 155.874 133.625 156.082 133.531 156.312L132.334 156.04C132.476 155.642 132.683 155.321 132.956 155.077C133.232 154.83 133.548 154.651 133.906 154.54C134.264 154.426 134.641 154.369 135.036 154.369C135.297 154.369 135.574 154.401 135.867 154.463C136.162 154.523 136.438 154.634 136.693 154.795C136.952 154.957 137.163 155.189 137.328 155.49C137.493 155.788 137.575 156.176 137.575 156.653V161H136.331V160.105H136.28C136.198 160.27 136.074 160.432 135.909 160.591C135.744 160.75 135.533 160.882 135.274 160.987C135.016 161.092 134.706 161.145 134.345 161.145ZM134.622 160.122C134.975 160.122 135.276 160.053 135.526 159.913C135.779 159.774 135.97 159.592 136.101 159.368C136.234 159.141 136.301 158.898 136.301 158.639V157.795C136.256 157.841 136.168 157.884 136.037 157.923C135.909 157.96 135.763 157.993 135.598 158.021C135.433 158.047 135.273 158.071 135.117 158.094C134.96 158.114 134.83 158.131 134.725 158.145C134.477 158.176 134.252 158.229 134.047 158.303C133.845 158.376 133.683 158.483 133.561 158.622C133.442 158.759 133.382 158.94 133.382 159.168C133.382 159.483 133.499 159.722 133.732 159.884C133.965 160.043 134.261 160.122 134.622 160.122ZM142.088 154.455V155.477H138.513V154.455H142.088ZM139.471 152.886H140.746V159.078C140.746 159.325 140.782 159.511 140.856 159.636C140.93 159.759 141.025 159.842 141.142 159.888C141.261 159.93 141.39 159.952 141.53 159.952C141.632 159.952 141.721 159.945 141.798 159.93C141.875 159.916 141.934 159.905 141.977 159.896L142.207 160.949C142.133 160.977 142.028 161.006 141.892 161.034C141.756 161.065 141.585 161.082 141.381 161.085C141.045 161.091 140.733 161.031 140.443 160.906C140.153 160.781 139.919 160.588 139.74 160.327C139.561 160.065 139.471 159.737 139.471 159.342V152.886ZM146.008 161.132C145.363 161.132 144.808 160.994 144.342 160.719C143.879 160.44 143.521 160.05 143.268 159.547C143.018 159.041 142.893 158.449 142.893 157.77C142.893 157.099 143.018 156.509 143.268 155.997C143.521 155.486 143.873 155.087 144.325 154.8C144.779 154.513 145.311 154.369 145.919 154.369C146.288 154.369 146.646 154.43 146.992 154.553C147.339 154.675 147.65 154.866 147.926 155.128C148.201 155.389 148.419 155.729 148.578 156.146C148.737 156.561 148.816 157.065 148.816 157.659V158.111H143.613V157.156H147.568C147.568 156.821 147.5 156.524 147.363 156.266C147.227 156.004 147.035 155.798 146.788 155.648C146.544 155.497 146.257 155.422 145.927 155.422C145.569 155.422 145.257 155.51 144.99 155.686C144.725 155.859 144.521 156.087 144.376 156.368C144.234 156.646 144.163 156.949 144.163 157.276V158.021C144.163 158.459 144.24 158.831 144.393 159.138C144.549 159.445 144.767 159.679 145.045 159.841C145.323 160 145.649 160.08 146.021 160.08C146.262 160.08 146.482 160.045 146.681 159.977C146.88 159.906 147.052 159.801 147.197 159.662C147.342 159.523 147.453 159.351 147.529 159.146L148.735 159.364C148.639 159.719 148.465 160.03 148.215 160.297C147.968 160.561 147.657 160.767 147.282 160.915C146.91 161.06 146.485 161.132 146.008 161.132ZM152.44 161.128C151.912 161.128 151.44 160.993 151.025 160.723C150.614 160.45 150.29 160.062 150.054 159.56C149.821 159.054 149.704 158.447 149.704 157.74C149.704 157.033 149.822 156.428 150.058 155.925C150.297 155.422 150.624 155.037 151.038 154.77C151.453 154.503 151.923 154.369 152.449 154.369C152.855 154.369 153.182 154.438 153.429 154.574C153.679 154.707 153.872 154.864 154.008 155.043C154.148 155.222 154.256 155.379 154.332 155.516H154.409V152.273H155.683V161H154.439V159.982H154.332C154.256 160.121 154.145 160.28 154 160.459C153.858 160.638 153.662 160.794 153.412 160.928C153.162 161.061 152.838 161.128 152.44 161.128ZM152.722 160.041C153.088 160.041 153.398 159.945 153.65 159.751C153.906 159.555 154.099 159.284 154.23 158.938C154.364 158.591 154.43 158.187 154.43 157.727C154.43 157.273 154.365 156.875 154.234 156.534C154.104 156.193 153.912 155.928 153.659 155.737C153.406 155.547 153.094 155.452 152.722 155.452C152.338 155.452 152.018 155.551 151.763 155.75C151.507 155.949 151.314 156.22 151.183 156.564C151.055 156.908 150.991 157.295 150.991 157.727C150.991 158.165 151.057 158.558 151.187 158.908C151.318 159.257 151.511 159.534 151.767 159.739C152.025 159.94 152.344 160.041 152.722 160.041ZM162.102 161.145C161.688 161.145 161.313 161.068 160.977 160.915C160.642 160.759 160.376 160.533 160.18 160.237C159.987 159.942 159.891 159.58 159.891 159.151C159.891 158.781 159.962 158.477 160.104 158.239C160.246 158 160.438 157.811 160.679 157.672C160.921 157.533 161.19 157.428 161.489 157.357C161.787 157.286 162.091 157.232 162.401 157.195C162.793 157.149 163.111 157.112 163.355 157.084C163.599 157.053 163.777 157.003 163.888 156.935C163.999 156.866 164.054 156.756 164.054 156.602V156.572C164.054 156.2 163.949 155.912 163.739 155.707C163.531 155.503 163.222 155.401 162.81 155.401C162.381 155.401 162.043 155.496 161.796 155.686C161.551 155.874 161.382 156.082 161.288 156.312L160.091 156.04C160.233 155.642 160.44 155.321 160.713 155.077C160.989 154.83 161.305 154.651 161.663 154.54C162.021 154.426 162.398 154.369 162.793 154.369C163.054 154.369 163.331 154.401 163.624 154.463C163.919 154.523 164.195 154.634 164.45 154.795C164.709 154.957 164.921 155.189 165.085 155.49C165.25 155.788 165.332 156.176 165.332 156.653V161H164.088V160.105H164.037C163.955 160.27 163.831 160.432 163.666 160.591C163.501 160.75 163.29 160.882 163.031 160.987C162.773 161.092 162.463 161.145 162.102 161.145ZM162.379 160.122C162.732 160.122 163.033 160.053 163.283 159.913C163.536 159.774 163.727 159.592 163.858 159.368C163.992 159.141 164.058 158.898 164.058 158.639V157.795C164.013 157.841 163.925 157.884 163.794 157.923C163.666 157.96 163.52 157.993 163.355 158.021C163.19 158.047 163.03 158.071 162.874 158.094C162.717 158.114 162.587 158.131 162.482 158.145C162.234 158.176 162.009 158.229 161.804 158.303C161.602 158.376 161.44 158.483 161.318 158.622C161.199 158.759 161.139 158.94 161.139 159.168C161.139 159.483 161.256 159.722 161.489 159.884C161.722 160.043 162.019 160.122 162.379 160.122ZM168.064 157.114V161H166.79V154.455H168.013V155.52H168.093C168.244 155.173 168.48 154.895 168.801 154.685C169.125 154.474 169.532 154.369 170.024 154.369C170.47 154.369 170.861 154.463 171.196 154.651C171.531 154.835 171.791 155.111 171.976 155.477C172.16 155.844 172.253 156.297 172.253 156.837V161H170.978V156.99C170.978 156.516 170.855 156.145 170.608 155.878C170.361 155.608 170.021 155.473 169.589 155.473C169.294 155.473 169.031 155.537 168.801 155.665C168.574 155.793 168.393 155.98 168.26 156.227C168.129 156.472 168.064 156.767 168.064 157.114ZM176.172 161.128C175.643 161.128 175.172 160.993 174.757 160.723C174.345 160.45 174.021 160.062 173.785 159.56C173.552 159.054 173.436 158.447 173.436 157.74C173.436 157.033 173.554 156.428 173.79 155.925C174.028 155.422 174.355 155.037 174.77 154.77C175.184 154.503 175.655 154.369 176.18 154.369C176.586 154.369 176.913 154.438 177.16 154.574C177.41 154.707 177.604 154.864 177.74 155.043C177.879 155.222 177.987 155.379 178.064 155.516H178.14V152.273H179.415V161H178.17V159.982H178.064C177.987 160.121 177.876 160.28 177.731 160.459C177.589 160.638 177.393 160.794 177.143 160.928C176.893 161.061 176.569 161.128 176.172 161.128ZM176.453 160.041C176.819 160.041 177.129 159.945 177.382 159.751C177.638 159.555 177.831 159.284 177.961 158.938C178.095 158.591 178.162 158.187 178.162 157.727C178.162 157.273 178.096 156.875 177.966 156.534C177.835 156.193 177.643 155.928 177.39 155.737C177.138 155.547 176.825 155.452 176.453 155.452C176.069 155.452 175.75 155.551 175.494 155.75C175.238 155.949 175.045 156.22 174.915 156.564C174.787 156.908 174.723 157.295 174.723 157.727C174.723 158.165 174.788 158.558 174.919 158.908C175.05 159.257 175.243 159.534 175.498 159.739C175.757 159.94 176.075 160.041 176.453 160.041ZM28.8862 181.132C28.2527 181.132 27.7073 180.989 27.2499 180.702C26.7953 180.412 26.4459 180.013 26.2016 179.504C25.9573 178.996 25.8351 178.413 25.8351 177.757C25.8351 177.092 25.9601 176.506 26.2101 175.997C26.4601 175.486 26.8124 175.087 27.2669 174.8C27.7215 174.513 28.257 174.369 28.8735 174.369C29.3706 174.369 29.8138 174.462 30.203 174.646C30.5922 174.828 30.9061 175.084 31.1448 175.413C31.3862 175.743 31.5297 176.128 31.5752 176.568H30.3351C30.2669 176.261 30.1107 175.997 29.8664 175.776C29.6249 175.554 29.301 175.443 28.8948 175.443C28.5397 175.443 28.2286 175.537 27.9615 175.724C27.6973 175.909 27.4914 176.173 27.3436 176.517C27.1959 176.858 27.122 177.261 27.122 177.727C27.122 178.205 27.1945 178.616 27.3394 178.963C27.4843 179.31 27.6888 179.578 27.953 179.768C28.22 179.959 28.534 180.054 28.8948 180.054C29.1362 180.054 29.355 180.01 29.551 179.922C29.7499 179.831 29.9161 179.702 30.0496 179.534C30.186 179.366 30.2811 179.165 30.3351 178.929H31.5752C31.5297 179.352 31.3919 179.73 31.1618 180.062C30.9317 180.395 30.6235 180.656 30.2371 180.847C29.8536 181.037 29.4033 181.132 28.8862 181.132ZM35.4548 181.132C34.8412 181.132 34.3057 180.991 33.8483 180.71C33.3909 180.429 33.0358 180.036 32.783 179.53C32.5301 179.024 32.4037 178.433 32.4037 177.757C32.4037 177.078 32.5301 176.484 32.783 175.976C33.0358 175.467 33.3909 175.072 33.8483 174.791C34.3057 174.51 34.8412 174.369 35.4548 174.369C36.0685 174.369 36.604 174.51 37.0614 174.791C37.5188 175.072 37.8739 175.467 38.1267 175.976C38.3796 176.484 38.506 177.078 38.506 177.757C38.506 178.433 38.3796 179.024 38.1267 179.53C37.8739 180.036 37.5188 180.429 37.0614 180.71C36.604 180.991 36.0685 181.132 35.4548 181.132ZM35.4591 180.062C35.8568 180.062 36.1864 179.957 36.4477 179.747C36.7091 179.537 36.9023 179.257 37.0273 178.908C37.1551 178.558 37.219 178.173 37.219 177.753C37.219 177.335 37.1551 176.952 37.0273 176.602C36.9023 176.25 36.7091 175.967 36.4477 175.754C36.1864 175.541 35.8568 175.435 35.4591 175.435C35.0585 175.435 34.7261 175.541 34.4619 175.754C34.2006 175.967 34.006 176.25 33.8781 176.602C33.7531 176.952 33.6906 177.335 33.6906 177.753C33.6906 178.173 33.7531 178.558 33.8781 178.908C34.006 179.257 34.2006 179.537 34.4619 179.747C34.7261 179.957 35.0585 180.062 35.4591 180.062ZM40.9624 177.114V181H39.6882V174.455H40.9112V175.52H40.9922C41.1427 175.173 41.3785 174.895 41.6996 174.685C42.0234 174.474 42.4311 174.369 42.9226 174.369C43.3686 174.369 43.7592 174.463 44.0945 174.651C44.4297 174.835 44.6896 175.111 44.8743 175.477C45.0589 175.844 45.1513 176.297 45.1513 176.837V181H43.8771V176.99C43.8771 176.516 43.7535 176.145 43.5064 175.878C43.2592 175.608 42.9197 175.473 42.4879 175.473C42.1925 175.473 41.9297 175.537 41.6996 175.665C41.4723 175.793 41.2919 175.98 41.1584 176.227C41.0277 176.472 40.9624 176.767 40.9624 177.114ZM49.6755 174.455V175.477H46.1002V174.455H49.6755ZM47.059 172.886H48.3331V179.078C48.3331 179.325 48.3701 179.511 48.4439 179.636C48.5178 179.759 48.613 179.842 48.7295 179.888C48.8488 179.93 48.978 179.952 49.1172 179.952C49.2195 179.952 49.309 179.945 49.3857 179.93C49.4624 179.916 49.5221 179.905 49.5647 179.896L49.7948 180.949C49.7209 180.977 49.6158 181.006 49.4795 181.034C49.3431 181.065 49.1726 181.082 48.9681 181.085C48.6329 181.091 48.3204 181.031 48.0306 180.906C47.7408 180.781 47.5064 180.588 47.3275 180.327C47.1485 180.065 47.059 179.737 47.059 179.342V172.886ZM50.8449 181V174.455H52.0765V175.494H52.1446C52.264 175.142 52.4742 174.865 52.7753 174.663C53.0793 174.459 53.423 174.357 53.8066 174.357C53.8861 174.357 53.9799 174.359 54.0878 174.365C54.1986 174.371 54.2853 174.378 54.3478 174.386V175.605C54.2966 175.591 54.2057 175.575 54.075 175.558C53.9444 175.538 53.8137 175.528 53.683 175.528C53.3819 175.528 53.1134 175.592 52.8776 175.72C52.6446 175.845 52.46 176.02 52.3236 176.244C52.1873 176.466 52.1191 176.719 52.1191 177.003V181H50.8449ZM57.7331 181.132C57.1195 181.132 56.584 180.991 56.1266 180.71C55.6692 180.429 55.3141 180.036 55.0612 179.53C54.8084 179.024 54.682 178.433 54.682 177.757C54.682 177.078 54.8084 176.484 55.0612 175.976C55.3141 175.467 55.6692 175.072 56.1266 174.791C56.584 174.51 57.1195 174.369 57.7331 174.369C58.3468 174.369 58.8823 174.51 59.3397 174.791C59.797 175.072 60.1522 175.467 60.405 175.976C60.6578 176.484 60.7843 177.078 60.7843 177.757C60.7843 178.433 60.6578 179.024 60.405 179.53C60.1522 180.036 59.797 180.429 59.3397 180.71C58.8823 180.991 58.3468 181.132 57.7331 181.132ZM57.7374 180.062C58.1351 180.062 58.4647 179.957 58.726 179.747C58.9874 179.537 59.1806 179.257 59.3056 178.908C59.4334 178.558 59.4973 178.173 59.4973 177.753C59.4973 177.335 59.4334 176.952 59.3056 176.602C59.1806 176.25 58.9874 175.967 58.726 175.754C58.4647 175.541 58.1351 175.435 57.7374 175.435C57.3368 175.435 57.0044 175.541 56.7402 175.754C56.4789 175.967 56.2843 176.25 56.1564 176.602C56.0314 176.952 55.9689 177.335 55.9689 177.753C55.9689 178.173 56.0314 178.558 56.1564 178.908C56.2843 179.257 56.4789 179.537 56.7402 179.747C57.0044 179.957 57.3368 180.062 57.7374 180.062ZM63.2406 172.273V181H61.9665V172.273H63.2406ZM70.7059 174.455V175.477H67.1307V174.455H70.7059ZM68.0895 172.886H69.3636V179.078C69.3636 179.325 69.4005 179.511 69.4744 179.636C69.5483 179.759 69.6434 179.842 69.7599 179.888C69.8792 179.93 70.0085 179.952 70.1477 179.952C70.25 179.952 70.3395 179.945 70.4162 179.93C70.4929 179.916 70.5525 179.905 70.5952 179.896L70.8253 180.949C70.7514 180.977 70.6463 181.006 70.5099 181.034C70.3736 181.065 70.2031 181.082 69.9986 181.085C69.6633 181.091 69.3508 181.031 69.0611 180.906C68.7713 180.781 68.5369 180.588 68.3579 180.327C68.179 180.065 68.0895 179.737 68.0895 179.342V172.886ZM73.2902 177.114V181H72.016V172.273H73.2731V175.52H73.3541C73.5075 175.168 73.7419 174.888 74.0572 174.68C74.3725 174.473 74.7845 174.369 75.293 174.369C75.7419 174.369 76.1339 174.462 76.4691 174.646C76.8072 174.831 77.0686 175.107 77.2532 175.473C77.4407 175.837 77.5345 176.291 77.5345 176.837V181H76.2603V176.99C76.2603 176.51 76.1368 176.138 75.8896 175.874C75.6424 175.607 75.2987 175.473 74.8583 175.473C74.5572 175.473 74.2873 175.537 74.0487 175.665C73.8129 175.793 73.6268 175.98 73.4904 176.227C73.3569 176.472 73.2902 176.767 73.2902 177.114ZM81.8158 181.132C81.1709 181.132 80.6155 180.994 80.1496 180.719C79.6865 180.44 79.3286 180.05 79.0757 179.547C78.8257 179.041 78.7007 178.449 78.7007 177.77C78.7007 177.099 78.8257 176.509 79.0757 175.997C79.3286 175.486 79.6808 175.087 80.1325 174.8C80.5871 174.513 81.1183 174.369 81.7263 174.369C82.0956 174.369 82.4536 174.43 82.8002 174.553C83.1468 174.675 83.4578 174.866 83.7334 175.128C84.009 175.389 84.2263 175.729 84.3854 176.146C84.5445 176.561 84.624 177.065 84.624 177.659V178.111H79.4209V177.156H83.3754C83.3754 176.821 83.3073 176.524 83.1709 176.266C83.0345 176.004 82.8428 175.798 82.5956 175.648C82.3513 175.497 82.0644 175.422 81.7348 175.422C81.3769 175.422 81.0644 175.51 80.7973 175.686C80.5331 175.859 80.3286 176.087 80.1837 176.368C80.0416 176.646 79.9706 176.949 79.9706 177.276V178.021C79.9706 178.459 80.0473 178.831 80.2007 179.138C80.357 179.445 80.5743 179.679 80.8527 179.841C81.1311 180 81.4564 180.08 81.8286 180.08C82.07 180.08 82.2902 180.045 82.4891 179.977C82.6879 179.906 82.8598 179.801 83.0047 179.662C83.1496 179.523 83.2604 179.351 83.3371 179.146L84.5431 179.364C84.4465 179.719 84.2732 180.03 84.0232 180.297C83.776 180.561 83.4649 180.767 83.0899 180.915C82.7178 181.06 82.2931 181.132 81.8158 181.132ZM91.8486 174.455V175.477H88.1497V174.455H91.8486ZM89.1639 181V173.696C89.1639 173.287 89.2534 172.947 89.4324 172.678C89.6114 172.405 89.8486 172.202 90.144 172.068C90.4395 171.932 90.7605 171.864 91.1071 171.864C91.3628 171.864 91.5815 171.885 91.7633 171.928C91.9452 171.967 92.0801 172.004 92.1682 172.038L91.8699 173.07C91.8102 173.053 91.7335 173.033 91.6398 173.01C91.546 172.984 91.4324 172.972 91.2989 172.972C90.9892 172.972 90.7676 173.048 90.6341 173.202C90.5034 173.355 90.4381 173.577 90.4381 173.866V181H89.1639ZM94.1973 172.273V181H92.9232V172.273H94.1973ZM98.4286 181.132C97.8149 181.132 97.2794 180.991 96.8221 180.71C96.3647 180.429 96.0096 180.036 95.7567 179.53C95.5039 179.024 95.3774 178.433 95.3774 177.757C95.3774 177.078 95.5039 176.484 95.7567 175.976C96.0096 175.467 96.3647 175.072 96.8221 174.791C97.2794 174.51 97.8149 174.369 98.4286 174.369C99.0422 174.369 99.5777 174.51 100.035 174.791C100.493 175.072 100.848 175.467 101.1 175.976C101.353 176.484 101.48 177.078 101.48 177.757C101.48 178.433 101.353 179.024 101.1 179.53C100.848 180.036 100.493 180.429 100.035 180.71C99.5777 180.991 99.0422 181.132 98.4286 181.132ZM98.4328 180.062C98.8306 180.062 99.1601 179.957 99.4215 179.747C99.6828 179.537 99.876 179.257 100.001 178.908C100.129 178.558 100.193 178.173 100.193 177.753C100.193 177.335 100.129 176.952 100.001 176.602C99.876 176.25 99.6828 175.967 99.4215 175.754C99.1601 175.541 98.8306 175.435 98.4328 175.435C98.0323 175.435 97.6999 175.541 97.4357 175.754C97.1743 175.967 96.9797 176.25 96.8519 176.602C96.7269 176.952 96.6644 177.335 96.6644 177.753C96.6644 178.173 96.7269 178.558 96.8519 178.908C96.9797 179.257 97.1743 179.537 97.4357 179.747C97.6999 179.957 98.0323 180.062 98.4328 180.062ZM103.882 181L101.956 174.455H103.272L104.555 179.261H104.619L105.906 174.455H107.223L108.501 179.24H108.565L109.839 174.455H111.156L109.234 181H107.934L106.605 176.274H106.507L105.177 181H103.882ZM117.818 181.132C117.204 181.132 116.669 180.991 116.211 180.71C115.754 180.429 115.399 180.036 115.146 179.53C114.893 179.024 114.767 178.433 114.767 177.757C114.767 177.078 114.893 176.484 115.146 175.976C115.399 175.467 115.754 175.072 116.211 174.791C116.669 174.51 117.204 174.369 117.818 174.369C118.432 174.369 118.967 174.51 119.424 174.791C119.882 175.072 120.237 175.467 120.49 175.976C120.743 176.484 120.869 177.078 120.869 177.757C120.869 178.433 120.743 179.024 120.49 179.53C120.237 180.036 119.882 180.429 119.424 180.71C118.967 180.991 118.432 181.132 117.818 181.132ZM117.822 180.062C118.22 180.062 118.549 179.957 118.811 179.747C119.072 179.537 119.265 179.257 119.39 178.908C119.518 178.558 119.582 178.173 119.582 177.753C119.582 177.335 119.518 176.952 119.39 176.602C119.265 176.25 119.072 175.967 118.811 175.754C118.549 175.541 118.22 175.435 117.822 175.435C117.422 175.435 117.089 175.541 116.825 175.754C116.564 175.967 116.369 176.25 116.241 176.602C116.116 176.952 116.054 177.335 116.054 177.753C116.054 178.173 116.116 178.558 116.241 178.908C116.369 179.257 116.564 179.537 116.825 179.747C117.089 179.957 117.422 180.062 117.822 180.062ZM125.166 174.455V175.477H121.468V174.455H125.166ZM122.482 181V173.696C122.482 173.287 122.571 172.947 122.75 172.678C122.929 172.405 123.166 172.202 123.462 172.068C123.757 171.932 124.078 171.864 124.425 171.864C124.681 171.864 124.899 171.885 125.081 171.928C125.263 171.967 125.398 172.004 125.486 172.038L125.188 173.07C125.128 173.053 125.051 173.033 124.958 173.01C124.864 172.984 124.75 172.972 124.617 172.972C124.307 172.972 124.085 173.048 123.952 173.202C123.821 173.355 123.756 173.577 123.756 173.866V181H122.482ZM132.232 174.455V175.477H128.657V174.455H132.232ZM129.616 172.886H130.89V179.078C130.89 179.325 130.927 179.511 131.001 179.636C131.075 179.759 131.17 179.842 131.286 179.888C131.405 179.93 131.535 179.952 131.674 179.952C131.776 179.952 131.866 179.945 131.942 179.93C132.019 179.916 132.079 179.905 132.121 179.896L132.352 180.949C132.278 180.977 132.173 181.006 132.036 181.034C131.9 181.065 131.729 181.082 131.525 181.085C131.19 181.091 130.877 181.031 130.587 180.906C130.298 180.781 130.063 180.588 129.884 180.327C129.705 180.065 129.616 179.737 129.616 179.342V172.886ZM134.816 177.114V181H133.542V172.273H134.799V175.52H134.88C135.034 175.168 135.268 174.888 135.583 174.68C135.899 174.473 136.311 174.369 136.819 174.369C137.268 174.369 137.66 174.462 137.995 174.646C138.333 174.831 138.595 175.107 138.779 175.473C138.967 175.837 139.061 176.291 139.061 176.837V181H137.787V176.99C137.787 176.51 137.663 176.138 137.416 175.874C137.169 175.607 136.825 175.473 136.385 175.473C136.083 175.473 135.814 175.537 135.575 175.665C135.339 175.793 135.153 175.98 135.017 176.227C134.883 176.472 134.816 176.767 134.816 177.114ZM143.342 181.132C142.697 181.132 142.142 180.994 141.676 180.719C141.213 180.44 140.855 180.05 140.602 179.547C140.352 179.041 140.227 178.449 140.227 177.77C140.227 177.099 140.352 176.509 140.602 175.997C140.855 175.486 141.207 175.087 141.659 174.8C142.113 174.513 142.645 174.369 143.253 174.369C143.622 174.369 143.98 174.43 144.326 174.553C144.673 174.675 144.984 174.866 145.26 175.128C145.535 175.389 145.753 175.729 145.912 176.146C146.071 176.561 146.15 177.065 146.15 177.659V178.111H140.947V177.156H144.902C144.902 176.821 144.834 176.524 144.697 176.266C144.561 176.004 144.369 175.798 144.122 175.648C143.878 175.497 143.591 175.422 143.261 175.422C142.903 175.422 142.591 175.51 142.324 175.686C142.059 175.859 141.855 176.087 141.71 176.368C141.568 176.646 141.497 176.949 141.497 177.276V178.021C141.497 178.459 141.574 178.831 141.727 179.138C141.883 179.445 142.101 179.679 142.379 179.841C142.657 180 142.983 180.08 143.355 180.08C143.596 180.08 143.816 180.045 144.015 179.977C144.214 179.906 144.386 179.801 144.531 179.662C144.676 179.523 144.787 179.351 144.863 179.146L146.069 179.364C145.973 179.719 145.799 180.03 145.549 180.297C145.302 180.561 144.991 180.767 144.616 180.915C144.244 181.06 143.819 181.132 143.342 181.132ZM152.71 181.128C152.182 181.128 151.71 180.993 151.295 180.723C150.883 180.45 150.559 180.062 150.324 179.56C150.091 179.054 149.974 178.447 149.974 177.74C149.974 177.033 150.092 176.428 150.328 175.925C150.567 175.422 150.893 175.037 151.308 174.77C151.723 174.503 152.193 174.369 152.719 174.369C153.125 174.369 153.452 174.438 153.699 174.574C153.949 174.707 154.142 174.864 154.278 175.043C154.417 175.222 154.525 175.379 154.602 175.516H154.679V172.273H155.953V181H154.709V179.982H154.602C154.525 180.121 154.415 180.28 154.27 180.459C154.128 180.638 153.932 180.794 153.682 180.928C153.432 181.061 153.108 181.128 152.71 181.128ZM152.991 180.041C153.358 180.041 153.667 179.945 153.92 179.751C154.176 179.555 154.369 179.284 154.5 178.938C154.633 178.591 154.7 178.187 154.7 177.727C154.7 177.273 154.635 176.875 154.504 176.534C154.373 176.193 154.182 175.928 153.929 175.737C153.676 175.547 153.363 175.452 152.991 175.452C152.608 175.452 152.288 175.551 152.032 175.75C151.777 175.949 151.584 176.22 151.453 176.564C151.325 176.908 151.261 177.295 151.261 177.727C151.261 178.165 151.327 178.558 151.457 178.908C151.588 179.257 151.781 179.534 152.037 179.739C152.295 179.94 152.613 180.041 152.991 180.041ZM159.436 181.145C159.022 181.145 158.647 181.068 158.311 180.915C157.976 180.759 157.71 180.533 157.514 180.237C157.321 179.942 157.225 179.58 157.225 179.151C157.225 178.781 157.296 178.477 157.438 178.239C157.58 178 157.772 177.811 158.013 177.672C158.255 177.533 158.524 177.428 158.823 177.357C159.121 177.286 159.425 177.232 159.735 177.195C160.127 177.149 160.445 177.112 160.689 177.084C160.933 177.053 161.111 177.003 161.222 176.935C161.333 176.866 161.388 176.756 161.388 176.602V176.572C161.388 176.2 161.283 175.912 161.073 175.707C160.865 175.503 160.556 175.401 160.144 175.401C159.715 175.401 159.377 175.496 159.13 175.686C158.885 175.874 158.716 176.082 158.622 176.312L157.425 176.04C157.567 175.642 157.774 175.321 158.047 175.077C158.323 174.83 158.639 174.651 158.997 174.54C159.355 174.426 159.732 174.369 160.127 174.369C160.388 174.369 160.665 174.401 160.958 174.463C161.253 174.523 161.529 174.634 161.784 174.795C162.043 174.957 162.255 175.189 162.419 175.49C162.584 175.788 162.666 176.176 162.666 176.653V181H161.422V180.105H161.371C161.289 180.27 161.165 180.432 161 180.591C160.835 180.75 160.624 180.882 160.365 180.987C160.107 181.092 159.797 181.145 159.436 181.145ZM159.713 180.122C160.066 180.122 160.367 180.053 160.617 179.913C160.87 179.774 161.061 179.592 161.192 179.368C161.326 179.141 161.392 178.898 161.392 178.639V177.795C161.347 177.841 161.259 177.884 161.128 177.923C161 177.96 160.854 177.993 160.689 178.021C160.524 178.047 160.364 178.071 160.208 178.094C160.051 178.114 159.921 178.131 159.816 178.145C159.568 178.176 159.343 178.229 159.138 178.303C158.936 178.376 158.774 178.483 158.652 178.622C158.533 178.759 158.473 178.94 158.473 179.168C158.473 179.483 158.59 179.722 158.823 179.884C159.056 180.043 159.353 180.122 159.713 180.122ZM167.179 174.455V175.477H163.604V174.455H167.179ZM164.562 172.886H165.837V179.078C165.837 179.325 165.874 179.511 165.947 179.636C166.021 179.759 166.116 179.842 166.233 179.888C166.352 179.93 166.481 179.952 166.621 179.952C166.723 179.952 166.812 179.945 166.889 179.93C166.966 179.916 167.025 179.905 167.068 179.896L167.298 180.949C167.224 180.977 167.119 181.006 166.983 181.034C166.847 181.065 166.676 181.082 166.472 181.085C166.136 181.091 165.824 181.031 165.534 180.906C165.244 180.781 165.01 180.588 164.831 180.327C164.652 180.065 164.562 179.737 164.562 179.342V172.886ZM170.253 181.145C169.838 181.145 169.463 181.068 169.128 180.915C168.793 180.759 168.527 180.533 168.331 180.237C168.138 179.942 168.042 179.58 168.042 179.151C168.042 178.781 168.113 178.477 168.255 178.239C168.397 178 168.588 177.811 168.83 177.672C169.071 177.533 169.341 177.428 169.64 177.357C169.938 177.286 170.242 177.232 170.551 177.195C170.944 177.149 171.262 177.112 171.506 177.084C171.75 177.053 171.928 177.003 172.039 176.935C172.149 176.866 172.205 176.756 172.205 176.602V176.572C172.205 176.2 172.1 175.912 171.89 175.707C171.682 175.503 171.373 175.401 170.961 175.401C170.532 175.401 170.194 175.496 169.946 175.686C169.702 175.874 169.533 176.082 169.439 176.312L168.242 176.04C168.384 175.642 168.591 175.321 168.864 175.077C169.14 174.83 169.456 174.651 169.814 174.54C170.172 174.426 170.549 174.369 170.944 174.369C171.205 174.369 171.482 174.401 171.774 174.463C172.07 174.523 172.346 174.634 172.601 174.795C172.86 174.957 173.071 175.189 173.236 175.49C173.401 175.788 173.483 176.176 173.483 176.653V181H172.239V180.105H172.188C172.105 180.27 171.982 180.432 171.817 180.591C171.652 180.75 171.441 180.882 171.182 180.987C170.924 181.092 170.614 181.145 170.253 181.145ZM170.53 180.122C170.882 180.122 171.184 180.053 171.434 179.913C171.686 179.774 171.878 179.592 172.009 179.368C172.142 179.141 172.209 178.898 172.209 178.639V177.795C172.164 177.841 172.076 177.884 171.945 177.923C171.817 177.96 171.671 177.993 171.506 178.021C171.341 178.047 171.181 178.071 171.024 178.094C170.868 178.114 170.738 178.131 170.632 178.145C170.385 178.176 170.159 178.229 169.955 178.303C169.753 178.376 169.591 178.483 169.469 178.622C169.35 178.759 169.29 178.94 169.29 179.168C169.29 179.483 169.407 179.722 169.64 179.884C169.873 180.043 170.169 180.122 170.53 180.122ZM177.876 181V174.455H179.15V181H177.876ZM178.52 173.445C178.298 173.445 178.108 173.371 177.949 173.223C177.792 173.072 177.714 172.893 177.714 172.686C177.714 172.476 177.792 172.297 177.949 172.149C178.108 171.999 178.298 171.923 178.52 171.923C178.741 171.923 178.93 171.999 179.086 172.149C179.245 172.297 179.325 172.476 179.325 172.686C179.325 172.893 179.245 173.072 179.086 173.223C178.93 173.371 178.741 173.445 178.52 173.445ZM181.899 177.114V181H180.624V174.455H181.847V175.52H181.928C182.079 175.173 182.315 174.895 182.636 174.685C182.96 174.474 183.367 174.369 183.859 174.369C184.305 174.369 184.695 174.463 185.031 174.651C185.366 174.835 185.626 175.111 185.811 175.477C185.995 175.844 186.088 176.297 186.088 176.837V181H184.813V176.99C184.813 176.516 184.69 176.145 184.443 175.878C184.195 175.608 183.856 175.473 183.424 175.473C183.129 175.473 182.866 175.537 182.636 175.665C182.409 175.793 182.228 175.98 182.095 176.227C181.964 176.472 181.899 176.767 181.899 177.114ZM85.3877 197.114V201H84.1135V194.455H85.3365V195.52H85.4175C85.5681 195.173 85.8039 194.895 86.1249 194.685C86.4487 194.474 86.8564 194.369 87.3479 194.369C87.7939 194.369 88.1845 194.463 88.5198 194.651C88.855 194.835 89.1149 195.111 89.2996 195.477C89.4843 195.844 89.5766 196.297 89.5766 196.837V201H88.3024V196.99C88.3024 196.516 88.1789 196.145 87.9317 195.878C87.6845 195.608 87.345 195.473 86.9132 195.473C86.6178 195.473 86.355 195.537 86.1249 195.665C85.8976 195.793 85.7172 195.98 85.5837 196.227C85.453 196.472 85.3877 196.767 85.3877 197.114ZM93.8664 201.132C93.2215 201.132 92.6661 200.994 92.2002 200.719C91.7372 200.44 91.3792 200.05 91.1264 199.547C90.8764 199.041 90.7514 198.449 90.7514 197.77C90.7514 197.099 90.8764 196.509 91.1264 195.997C91.3792 195.486 91.7315 195.087 92.1832 194.8C92.6377 194.513 93.169 194.369 93.7769 194.369C94.1462 194.369 94.5042 194.43 94.8508 194.553C95.1974 194.675 95.5085 194.866 95.784 195.128C96.0596 195.389 96.2769 195.729 96.436 196.146C96.5951 196.561 96.6747 197.065 96.6747 197.659V198.111H91.4715V197.156H95.4261C95.4261 196.821 95.3579 196.524 95.2215 196.266C95.0852 196.004 94.8934 195.798 94.6462 195.648C94.4019 195.497 94.115 195.422 93.7854 195.422C93.4275 195.422 93.115 195.51 92.8479 195.686C92.5837 195.859 92.3792 196.087 92.2343 196.368C92.0923 196.646 92.0212 196.949 92.0212 197.276V198.021C92.0212 198.459 92.0979 198.831 92.2514 199.138C92.4076 199.445 92.6249 199.679 92.9033 199.841C93.1818 200 93.507 200.08 93.8792 200.08C94.1207 200.08 94.3408 200.045 94.5397 199.977C94.7386 199.906 94.9104 199.801 95.0553 199.662C95.2002 199.523 95.311 199.351 95.3877 199.146L96.5937 199.364C96.4971 199.719 96.3238 200.03 96.0738 200.297C95.8266 200.561 95.5156 200.767 95.1406 200.915C94.7684 201.06 94.3437 201.132 93.8664 201.132ZM100.904 194.455V195.477H97.3285V194.455H100.904ZM98.2873 192.886H99.5614V199.078C99.5614 199.325 99.5984 199.511 99.6722 199.636C99.7461 199.759 99.8413 199.842 99.9577 199.888C100.077 199.93 100.206 199.952 100.346 199.952C100.448 199.952 100.537 199.945 100.614 199.93C100.691 199.916 100.75 199.905 100.793 199.896L101.023 200.949C100.949 200.977 100.844 201.006 100.708 201.034C100.571 201.065 100.401 201.082 100.196 201.085C99.8611 201.091 99.5486 201.031 99.2589 200.906C98.9691 200.781 98.7347 200.588 98.5557 200.327C98.3768 200.065 98.2873 199.737 98.2873 199.342V192.886ZM103.492 201L101.566 194.455H102.883L104.166 199.261H104.229L105.516 194.455H106.833L108.112 199.24H108.175L109.45 194.455H110.766L108.845 201H107.545L106.215 196.274H106.117L104.788 201H103.492ZM114.293 201.132C113.68 201.132 113.144 200.991 112.687 200.71C112.23 200.429 111.874 200.036 111.622 199.53C111.369 199.024 111.242 198.433 111.242 197.757C111.242 197.078 111.369 196.484 111.622 195.976C111.874 195.467 112.23 195.072 112.687 194.791C113.144 194.51 113.68 194.369 114.293 194.369C114.907 194.369 115.443 194.51 115.9 194.791C116.357 195.072 116.712 195.467 116.965 195.976C117.218 196.484 117.345 197.078 117.345 197.757C117.345 198.433 117.218 199.024 116.965 199.53C116.712 200.036 116.357 200.429 115.9 200.71C115.443 200.991 114.907 201.132 114.293 201.132ZM114.298 200.062C114.695 200.062 115.025 199.957 115.286 199.747C115.548 199.537 115.741 199.257 115.866 198.908C115.994 198.558 116.058 198.173 116.058 197.753C116.058 197.335 115.994 196.952 115.866 196.602C115.741 196.25 115.548 195.967 115.286 195.754C115.025 195.541 114.695 195.435 114.298 195.435C113.897 195.435 113.565 195.541 113.301 195.754C113.039 195.967 112.845 196.25 112.717 196.602C112.592 196.952 112.529 197.335 112.529 197.753C112.529 198.173 112.592 198.558 112.717 198.908C112.845 199.257 113.039 199.537 113.301 199.747C113.565 199.957 113.897 200.062 114.298 200.062ZM118.527 201V194.455H119.758V195.494H119.827C119.946 195.142 120.156 194.865 120.457 194.663C120.761 194.459 121.105 194.357 121.488 194.357C121.568 194.357 121.662 194.359 121.77 194.365C121.88 194.371 121.967 194.378 122.03 194.386V195.605C121.978 195.591 121.888 195.575 121.757 195.558C121.626 195.538 121.496 195.528 121.365 195.528C121.064 195.528 120.795 195.592 120.559 195.72C120.327 195.845 120.142 196.02 120.005 196.244C119.869 196.466 119.801 196.719 119.801 197.003V201H118.527ZM124.064 198.78L124.056 197.224H124.277L126.885 194.455H128.411L125.436 197.608H125.236L124.064 198.78ZM122.892 201V192.273H124.166V201H122.892ZM127.026 201L124.682 197.889L125.56 196.999L128.59 201H127.026Z" fill="#231F20"/>
<path d="M44.6202 230V216.909H49.785C50.7779 216.909 51.6237 217.099 52.3226 217.478C53.0215 217.853 53.5541 218.375 53.9206 219.044C54.2914 219.709 54.4767 220.476 54.4767 221.345C54.4767 222.214 54.2892 222.982 53.9142 223.646C53.5392 224.311 52.9959 224.829 52.2843 225.2C51.5769 225.57 50.7203 225.756 49.7147 225.756H46.4227V223.538H49.2672C49.7999 223.538 50.2388 223.446 50.584 223.263C50.9334 223.075 51.1933 222.817 51.3638 222.489C51.5385 222.157 51.6259 221.776 51.6259 221.345C51.6259 220.911 51.5385 220.531 51.3638 220.207C51.1933 219.879 50.9334 219.626 50.584 219.447C50.2345 219.263 49.7914 219.172 49.2544 219.172H47.3879V230H44.6202ZM56.5114 230V220.182H59.1513V221.895H59.2535C59.4325 221.286 59.7329 220.825 60.1548 220.514C60.5767 220.199 61.0625 220.041 61.6122 220.041C61.7486 220.041 61.8956 220.05 62.0533 220.067C62.2109 220.084 62.3494 220.107 62.4687 220.137V222.553C62.3409 222.515 62.1641 222.481 61.9382 222.451C61.7123 222.421 61.5057 222.406 61.3182 222.406C60.9176 222.406 60.5596 222.494 60.2443 222.668C59.9332 222.839 59.6861 223.077 59.5028 223.384C59.3239 223.691 59.2344 224.045 59.2344 224.445V230H56.5114ZM68.182 230.192C67.172 230.192 66.3027 229.987 65.574 229.578C64.8496 229.165 64.2914 228.581 63.8993 227.827C63.5073 227.068 63.3112 226.171 63.3112 225.136C63.3112 224.126 63.5073 223.239 63.8993 222.477C64.2914 221.714 64.8432 221.119 65.5549 220.693C66.2708 220.267 67.1103 220.054 68.0733 220.054C68.721 220.054 69.324 220.158 69.8823 220.367C70.4448 220.572 70.9348 220.881 71.3524 221.294C71.7743 221.707 72.1024 222.227 72.3368 222.854C72.5712 223.476 72.6884 224.205 72.6884 225.04V225.788H64.3979V224.1H70.1252C70.1252 223.708 70.0399 223.361 69.8695 223.058C69.699 222.756 69.4625 222.519 69.16 222.349C68.8617 222.174 68.5144 222.087 68.1181 222.087C67.7047 222.087 67.3382 222.183 67.0186 222.374C66.7033 222.562 66.4561 222.815 66.2772 223.135C66.0982 223.45 66.0066 223.802 66.0023 224.19V225.794C66.0023 226.28 66.0918 226.7 66.2708 227.053C66.454 227.407 66.7118 227.68 67.0442 227.871C67.3766 228.063 67.7708 228.159 68.2267 228.159C68.5293 228.159 68.8063 228.116 69.0577 228.031C69.3091 227.946 69.5243 227.818 69.7033 227.648C69.8823 227.477 70.0186 227.268 70.1124 227.021L72.6309 227.188C72.503 227.793 72.2409 228.321 71.8446 228.773C71.4526 229.22 70.9455 229.57 70.3233 229.821C69.7054 230.068 68.9916 230.192 68.182 230.192ZM83.6431 220.182L80.2106 230H77.1424L73.7099 220.182H76.5863L78.6253 227.207H78.7276L80.7603 220.182H83.6431ZM89.4826 230.192C88.4727 230.192 87.6033 229.987 86.8746 229.578C86.1502 229.165 85.592 228.581 85.1999 227.827C84.8079 227.068 84.6119 226.171 84.6119 225.136C84.6119 224.126 84.8079 223.239 85.1999 222.477C85.592 221.714 86.1438 221.119 86.8555 220.693C87.5714 220.267 88.4109 220.054 89.3739 220.054C90.0217 220.054 90.6246 220.158 91.1829 220.367C91.7454 220.572 92.2354 220.881 92.6531 221.294C93.0749 221.707 93.4031 222.227 93.6374 222.854C93.8718 223.476 93.989 224.205 93.989 225.04V225.788H85.6985V224.1H91.4258C91.4258 223.708 91.3406 223.361 91.1701 223.058C90.9996 222.756 90.7631 222.519 90.4606 222.349C90.1623 222.174 89.815 222.087 89.4187 222.087C89.0053 222.087 88.6388 222.183 88.3192 222.374C88.0039 222.562 87.7567 222.815 87.5778 223.135C87.3988 223.45 87.3072 223.802 87.3029 224.19V225.794C87.3029 226.28 87.3924 226.7 87.5714 227.053C87.7546 227.407 88.0124 227.68 88.3448 227.871C88.6772 228.063 89.0714 228.159 89.5273 228.159C89.8299 228.159 90.1069 228.116 90.3583 228.031C90.6097 227.946 90.8249 227.818 91.0039 227.648C91.1829 227.477 91.3192 227.268 91.413 227.021L93.9315 227.188C93.8036 227.793 93.5415 228.321 93.1452 228.773C92.7532 229.22 92.2461 229.57 91.6239 229.821C91.006 230.068 90.2923 230.192 89.4826 230.192ZM98.777 224.324V230H96.054V220.182H98.6491V221.914H98.7642C98.9815 221.343 99.3459 220.891 99.8572 220.559C100.369 220.222 100.989 220.054 101.717 220.054C102.399 220.054 102.994 220.203 103.501 220.501C104.008 220.8 104.402 221.226 104.683 221.78C104.964 222.33 105.105 222.986 105.105 223.749V230H102.382V224.234C102.386 223.634 102.233 223.165 101.922 222.828C101.611 222.487 101.183 222.317 100.637 222.317C100.271 222.317 99.9467 222.396 99.6655 222.553C99.3885 222.711 99.1712 222.941 99.0135 223.244C98.8601 223.542 98.7812 223.902 98.777 224.324ZM112.762 220.182V222.227H106.849V220.182H112.762ZM108.191 217.83H110.914V226.983C110.914 227.234 110.953 227.43 111.029 227.571C111.106 227.707 111.213 227.803 111.349 227.859C111.49 227.914 111.651 227.942 111.835 227.942C111.963 227.942 112.09 227.931 112.218 227.91C112.346 227.884 112.444 227.865 112.512 227.852L112.941 229.879C112.804 229.921 112.612 229.97 112.365 230.026C112.118 230.085 111.818 230.121 111.464 230.134C110.808 230.16 110.232 230.072 109.738 229.872C109.248 229.672 108.867 229.361 108.594 228.939C108.321 228.517 108.187 227.984 108.191 227.341V217.83ZM121.694 216.909L124.858 226.855H124.979L128.15 216.909H131.218L126.705 230H123.138L118.619 216.909H121.694ZM133.081 230V216.909L138.246 216.909C139.239 216.909 140.085 217.099 140.784 217.478C141.483 217.853 142.015 218.375 142.382 219.044C142.752 219.709 142.938 220.476 142.938 221.345C142.938 222.214 142.75 222.982 142.375 223.646C142 224.311 141.457 224.829 140.745 225.2C140.038 225.57 139.181 225.756 138.176 225.756L134.884 225.756V223.538L137.728 223.538C138.261 223.538 138.7 223.446 139.045 223.263C139.395 223.075 139.654 222.817 139.825 222.489C140 222.157 140.087 221.776 140.087 221.345C140.087 220.911 140 220.531 139.825 220.207C139.654 219.879 139.395 219.626 139.045 219.447C138.696 219.263 138.252 219.172 137.716 219.172H135.849V230H133.081ZM155.973 216.909V230H153.583L147.887 221.761H147.791V230H145.024V216.909H147.453L153.103 225.142H153.218V216.909H155.973ZM166.666 222.982L164.173 223.135C164.13 222.922 164.039 222.73 163.898 222.56C163.757 222.385 163.572 222.246 163.342 222.144C163.116 222.038 162.846 221.984 162.53 221.984C162.108 221.984 161.753 222.074 161.463 222.253C161.173 222.428 161.028 222.662 161.028 222.956C161.028 223.19 161.122 223.388 161.309 223.55C161.497 223.712 161.819 223.842 162.275 223.94L164.052 224.298C165.006 224.494 165.718 224.81 166.186 225.244C166.655 225.679 166.89 226.25 166.89 226.957C166.89 227.601 166.7 228.165 166.321 228.651C165.946 229.137 165.43 229.516 164.774 229.789C164.122 230.058 163.37 230.192 162.517 230.192C161.218 230.192 160.182 229.921 159.411 229.38C158.644 228.835 158.194 228.093 158.062 227.156L160.74 227.015C160.821 227.411 161.017 227.714 161.328 227.923C161.64 228.127 162.038 228.229 162.524 228.229C163.001 228.229 163.385 228.138 163.674 227.955C163.968 227.767 164.118 227.526 164.122 227.232C164.118 226.985 164.013 226.783 163.809 226.625C163.604 226.463 163.289 226.339 162.863 226.254L161.162 225.915C160.203 225.724 159.49 225.391 159.021 224.918C158.556 224.445 158.324 223.842 158.324 223.109C158.324 222.479 158.495 221.935 158.836 221.479C159.181 221.023 159.664 220.672 160.287 220.425C160.913 220.178 161.646 220.054 162.485 220.054C163.726 220.054 164.701 220.316 165.413 220.84C166.129 221.364 166.547 222.078 166.666 222.982Z" fill="white"/>
<g opacity="0.2">
<path d="M-27.4317 192.58C-18.348 190.82 20.6817 178.041 73.6033 198.849C139.755 224.858 154.413 296.153 272.602 288.487" stroke="white"/>
<path d="M-37.2134 230.208C-28.1298 228.449 10.9 215.669 63.8216 236.477C129.974 262.486 144.631 333.781 262.821 326.115" stroke="white"/>
<path d="M-34.8509 221.152C-25.7672 219.393 13.2625 206.614 66.1841 227.421C132.336 253.43 146.994 324.726 265.183 317.059" stroke="white"/>
<path d="M-32.5586 212.088C-23.4174 210.182 15.9165 196.63 68.838 217.437C134.99 243.446 148.939 316.544 267.714 307.389" stroke="white"/>
<path d="M-29.9047 202.104C-20.7923 200.271 18.3895 187.105 71.3111 207.913C137.463 233.922 151.766 306.119 270.249 297.708" stroke="white"/>
</g>
</g>
<defs>
<filter id="filter0_d_3_232" x="53" y="17" width="104" height="104" filterUnits="userSpaceOnUse" color-interpolation-filters="sRGB">
<feFlood flood-opacity="0" result="BackgroundImageFix"/>
<feColorMatrix in="SourceAlpha" type="matrix" values="0 0 0 0 0 0 0 0 0 0 0 0 0 0 0 0 0 0 127 0" result="hardAlpha"/>
<feOffset dy="6"/>
<feGaussianBlur stdDeviation="8"/>
<feColorMatrix type="matrix" values="0 0 0 0 0 0 0 0 0 0.870588 0 0 0 0 0.639216 0 0 0 0.16 0"/>
<feBlend mode="normal" in2="BackgroundImageFix" result="effect1_dropShadow_3_232"/>
<feBlend mode="normal" in="SourceGraphic" in2="effect1_dropShadow_3_232" result="shape"/>
</filter>
<clipPath id="clip0_3_232">
<rect width="216" height="269" rx="16" fill="white"/>
</clipPath>
</defs>
</svg>
