<svg width="39" height="40" viewBox="0 0 39 40" fill="none" xmlns="http://www.w3.org/2000/svg">
<g id="Group 7241">
<g id="&#240;&#159;&#166;&#134; icon &#34;shield&#34;">
<path id="Vector" d="M19.3489 0.940002L18.4298 1.37535L1.49954 8.48607L0 9.11491V10.6144C0 18.6442 3.24094 25.7066 7.11072 30.8824C9.04561 33.4461 11.1256 35.5745 13.1572 37.0741C15.1889 38.5736 17.1721 39.6378 19.3489 39.6378C21.574 39.6378 23.5089 38.5736 25.5405 37.0741C27.5722 35.5745 29.6522 33.4461 31.5871 30.8824C35.4568 25.7066 38.6978 18.6442 38.6978 10.6144V9.11491L37.1982 8.48607L20.268 1.37535L19.3489 0.940002ZM19.3489 6.21258V34.8006C19.1554 34.8006 17.7526 34.462 16.1563 33.301C14.56 32.1401 12.7219 30.2536 11.0289 28.0285C7.93305 23.9168 5.51443 18.2089 5.12746 12.1624L19.3489 6.26095V6.21258Z" fill="#009CBD"/>
</g>
</g>
</svg>
